<svg width="25" height="24" viewBox="0 0 25 24" fill="none" xmlns="http://www.w3.org/2000/svg">
<path d="M12.5 2C14.3452 2 15.8293 2 17.0401 2.08783L13.5986 7.25002H8.90139L12.4014 2H12.5Z" fill="currentColor"/>
<path d="M3.96447 3.46447C5.21683 2.2121 7.12194 2.03072 10.5957 2.00445L7.09861 7.25002H2.60418C2.75143 5.48593 3.1068 4.32213 3.96447 3.46447Z" fill="currentColor"/>
<path fill-rule="evenodd" clip-rule="evenodd" d="M2.5 12C2.5 10.7633 2.5 9.68875 2.52644 8.75002H22.4736C22.5 9.68875 22.5 10.7633 22.5 12C22.5 16.714 22.5 19.0711 21.0355 20.5355C19.5711 22 17.214 22 12.5 22C7.78595 22 5.42893 22 3.96447 20.5355C2.5 19.0711 2.5 16.714 2.5 12ZM13.514 12.5852C14.838 13.4395 15.5 13.8666 15.5 14.5C15.5 15.1334 14.838 15.5605 13.514 16.4148C12.1719 17.2807 11.5008 17.7137 11.0004 17.3958C10.5 17.0779 10.5 16.2186 10.5 14.5C10.5 12.7814 10.5 11.9221 11.0004 11.6042C11.5008 11.2863 12.1719 11.7193 13.514 12.5852Z" fill="currentColor"/>
<path d="M22.3958 7.25002C22.2486 5.48593 21.8932 4.32213 21.0355 3.46447C20.4382 2.86714 19.6924 2.51345 18.6987 2.30403L15.4014 7.25002H22.3958Z" fill="currentColor"/>
</svg>
