<svg width="96" height="96" viewBox="0 0 96 96" fill="none" xmlns="http://www.w3.org/2000/svg">
<path fill-rule="evenodd" clip-rule="evenodd" d="M48 88C70.0914 88 88 70.0914 88 48C88 25.9086 70.0914 8 48 8C25.9086 8 8 25.9086 8 48C8 70.0914 25.9086 88 48 88ZM30.2002 38.4002C28.8747 37.4061 28.6061 35.5257 29.6002 34.2002C30.5943 32.8747 32.4747 32.6061 33.8002 33.6002L41.8002 39.6002C42.5556 40.1667 43.0002 41.0559 43.0002 42.0002C43.0002 42.9445 42.5556 43.8336 41.8002 44.4002L33.8002 50.4002C32.4747 51.3943 30.5943 51.1257 29.6002 49.8002C28.6061 48.4747 28.8747 46.5943 30.2002 45.6002L35.0002 42.0002L30.2002 38.4002ZM66.4002 34.2002C67.3943 35.5257 67.1257 37.4061 65.8002 38.4002L61.0002 42.0002L65.8002 45.6002C67.1257 46.5943 67.3943 48.4747 66.4002 49.8002C65.4061 51.1257 63.5257 51.3943 62.2002 50.4002L54.2002 44.4002C53.4448 43.8336 53.0002 42.9445 53.0002 42.0002C53.0002 41.0559 53.4448 40.1667 54.2002 39.6002L62.2002 33.6002C63.5257 32.6061 65.4061 32.8747 66.4002 34.2002ZM62.1215 66.1216C60.9499 67.2932 59.0504 67.2932 57.8789 66.1216L55.9984 64.2412C53.7551 66.3585 50.2428 66.3579 48.0002 64.2395C45.7575 66.3579 42.2453 66.3585 40.0019 64.2412L38.1215 66.1216C36.9499 67.2932 35.0504 67.2932 33.8789 66.1216C32.7073 64.9501 32.7073 63.0506 33.8789 61.879L35.8789 59.879C38.115 57.6428 41.7161 57.6035 44.0002 59.7611C46.2434 57.6421 49.7569 57.6421 52.0002 59.7611C54.2843 57.6035 57.8854 57.6428 60.1215 59.879L62.1215 61.879C63.2931 63.0506 63.2931 64.9501 62.1215 66.1216Z" fill="#A0A0A0"/>
</svg>
