<svg viewBox="0 0 96 96" fill="none" xmlns="http://www.w3.org/2000/svg">
<path d="M87.9991 50.7914C87.9931 56.6697 87.9483 61.666 87.6143 65.7657C87.2267 70.523 86.4323 74.4983 84.6545 77.7999C83.8703 79.2562 82.9067 80.5602 81.7335 81.7335C78.4039 85.063 74.162 86.5712 68.7862 87.294C63.5342 88.0001 56.8029 88.0001 48.2135 88H47.7865C39.1971 88.0001 32.4658 88.0001 27.2138 87.294C21.838 86.5712 17.5961 85.063 14.2666 81.7335C11.3148 78.7817 9.79051 75.1078 8.97991 70.5504C8.18363 66.0735 8.03796 60.5035 8.0077 53.5869C8 51.8276 8 49.9668 8 48.0037V47.7865C7.99995 39.1971 7.99992 32.4658 8.70603 27.2138C9.42879 21.838 10.937 17.5961 14.2666 14.2666C17.5961 10.937 21.838 9.42879 27.2138 8.70603C31.8845 8.07808 37.8939 8.0086 45.2081 8.00094C46.7494 7.99933 48 9.24943 48 10.7907C48 12.332 46.7488 13.5808 45.2076 13.5824C37.79 13.5903 32.27 13.6579 27.9575 14.2377C23.2006 14.8772 20.3328 16.0935 18.2132 18.2132C16.0935 20.3328 14.8772 23.2006 14.2377 27.9575C13.5873 32.7946 13.5814 39.1508 13.5814 48C13.5814 49.0807 13.5814 50.1258 13.5827 51.1377L17.3078 47.8782C20.6986 44.9113 25.809 45.0815 28.9949 48.2674L44.9567 64.2291C47.5138 66.7863 51.5391 67.1349 54.4978 65.0556L55.6074 64.2758C59.8651 61.2836 65.6254 61.6303 69.4934 65.1115L80.0256 74.5904C81.0856 72.3641 81.7151 69.4389 82.0513 65.3125C82.3681 61.4243 82.4117 56.7019 82.4177 50.7915C82.4192 49.2503 83.668 48 85.2093 48C86.7506 48 88.0006 49.2501 87.9991 50.7914Z" fill="currentColor"/>
<path fill-rule="evenodd" clip-rule="evenodd" d="M70 44C61.5147 44 57.2721 44 54.636 41.364C52 38.7279 52 34.4853 52 26C52 17.5147 52 13.2721 54.636 10.636C57.2721 8 61.5147 8 70 8C78.4853 8 82.7279 8 85.364 10.636C88 13.2721 88 17.5147 88 26C88 34.4853 88 38.7279 85.364 41.364C82.7279 44 78.4853 44 70 44ZM73 18C73 16.3431 71.6569 15 70 15C68.3431 15 67 16.3431 67 18V23H62C60.3431 23 59 24.3431 59 26C59 27.6569 60.3431 29 62 29H67V34C67 35.6569 68.3431 37 70 37C71.6569 37 73 35.6569 73 34V29H78C79.6569 29 81 27.6569 81 26C81 24.3431 79.6569 23 78 23H73V18Z" fill="currentColor"/>
</svg>
