<svg viewBox="0 0 25 24" fill="none" xmlns="http://www.w3.org/2000/svg">
<path fill-rule="evenodd" clip-rule="evenodd" d="M3.96447 3.46447C2.5 4.92893 2.5 7.28595 2.5 12C2.5 16.714 2.5 19.0711 3.96447 20.5355C5.42893 22 7.78595 22 12.5 22C17.214 22 19.5711 22 21.0355 20.5355C22.5 19.0711 22.5 16.714 22.5 12C22.5 7.28595 22.5 4.92893 21.0355 3.46447C19.5711 2 17.214 2 12.5 2C7.78595 2 5.42893 2 3.96447 3.46447ZM16.5 10C17.6046 10 18.5 9.10457 18.5 8C18.5 6.89543 17.6046 6 16.5 6C15.3954 6 14.5 6.89543 14.5 8C14.5 9.10457 15.3954 10 16.5 10ZM6.82092 13.1038C7.44501 12.5241 8.41991 12.5566 9.00397 13.1766L11.6515 15.9869C12.4509 16.8356 13.7596 16.9499 14.6941 16.2527C15.3073 15.7953 16.161 15.8473 16.7141 16.3757L18.9819 18.5423C19.2814 18.8284 19.7562 18.8176 20.0423 18.5181C20.3284 18.2186 20.3176 17.7438 20.0181 17.4577L17.7503 15.2911C16.6679 14.257 14.9971 14.1553 13.7972 15.0504C13.4735 15.2919 13.0202 15.2523 12.7433 14.9584L10.0958 12.1481C8.94651 10.9281 7.02816 10.8641 5.8001 12.0047L4.9896 12.7575C4.6861 13.0394 4.66858 13.5139 4.95047 13.8174C5.23236 14.1209 5.70691 14.1385 6.01041 13.8566L6.82092 13.1038Z" fill="currentColor"/>
</svg>
