<svg width="29" height="30" viewBox="0 0 29 30" fill="none" xmlns="http://www.w3.org/2000/svg">
<g clip-path="url(#clip0_195_974)">
<g filter="url(#filter0_d_195_974)">
<path d="M23.8132 5.34511C24.9421 6.47402 24.9421 8.30435 23.8132 9.43326L23.2928 9.95366C23.1413 9.92086 22.9504 9.87091 22.733 9.79546C22.1508 9.59349 21.3858 9.21181 20.6661 8.49218C19.9465 7.77254 19.5648 7.00749 19.3629 6.42536C19.2874 6.20788 19.2375 6.01704 19.2047 5.86551L19.7251 5.34511C20.854 4.21619 22.6843 4.21619 23.8132 5.34511Z" fill="white"/>
<path d="M16.8678 16.3787C16.4435 16.8029 16.2314 17.0151 15.9975 17.1975C15.7216 17.4127 15.423 17.5973 15.1071 17.7478C14.8393 17.8754 14.5547 17.9703 13.9855 18.16L10.9838 19.1606C10.7037 19.254 10.3948 19.1811 10.186 18.9723C9.97724 18.7635 9.90434 18.4547 9.99771 18.1745L10.9983 15.1728C11.188 14.6036 11.2829 14.319 11.4105 14.0512C11.5611 13.7353 11.7456 13.4368 11.9608 13.1608C12.1432 12.9269 12.3554 12.7148 12.7796 12.2905L17.9423 7.12786C18.2193 7.85687 18.7048 8.75853 19.5523 9.60604C20.3998 10.4535 21.3014 10.939 22.0305 11.216L16.8678 16.3787Z" fill="white"/>
<path d="M23.122 23.9637C24.6599 22.4257 24.6599 19.9505 24.6599 15C24.6599 13.3741 24.6599 12.0152 24.6054 10.8688L17.9241 17.5501C17.5553 17.9191 17.2781 18.1964 16.9663 18.4396C16.6001 18.7252 16.204 18.97 15.7848 19.1698C15.4278 19.34 15.0558 19.4638 14.5608 19.6287L11.4819 20.655C10.6358 20.9371 9.70286 20.7168 9.07217 20.0861C8.44148 19.4555 8.22126 18.5226 8.50331 17.6764L9.52959 14.5975C9.69447 14.1025 9.81835 13.7305 9.98851 13.3735C10.1883 12.9543 10.4331 12.5582 10.7187 12.192C10.9619 11.8802 11.2392 11.603 11.6083 11.2342L18.2895 4.55291C17.1431 4.49842 15.7842 4.49842 14.1583 4.49842C9.20783 4.49842 6.73258 4.49842 5.19466 6.03634C3.65674 7.57426 3.65674 10.0495 3.65674 15C3.65674 19.9505 3.65674 22.4257 5.19466 23.9637C6.73258 25.5016 9.20783 25.5016 14.1583 25.5016C19.1088 25.5016 21.5841 25.5016 23.122 23.9637Z" fill="white"/>
</g>
</g>
<defs>
<filter id="filter0_d_195_974" x="-1.01063" y="-0.168945" width="30.3379" height="30.3379" filterUnits="userSpaceOnUse" color-interpolation-filters="sRGB">
<feFlood flood-opacity="0" result="BackgroundImageFix"/>
<feColorMatrix in="SourceAlpha" type="matrix" values="0 0 0 0 0 0 0 0 0 0 0 0 0 0 0 0 0 0 127 0" result="hardAlpha"/>
<feOffset/>
<feGaussianBlur stdDeviation="2.33368"/>
<feComposite in2="hardAlpha" operator="out"/>
<feColorMatrix type="matrix" values="0 0 0 0 0 0 0 0 0 0 0 0 0 0 0 0 0 0 0.2 0"/>
<feBlend mode="normal" in2="BackgroundImageFix" result="effect1_dropShadow_195_974"/>
<feBlend mode="normal" in="SourceGraphic" in2="effect1_dropShadow_195_974" result="shape"/>
</filter>
<clipPath id="clip0_195_974">
<rect x="0.15625" y="0.997896" width="28.0042" height="28.0042" rx="14.0021" fill="white"/>
</clipPath>
</defs>
</svg>
