<svg width="36" height="36" viewBox="0 0 36 36" fill="none" xmlns="http://www.w3.org/2000/svg">
<g id="Bold / Arrows / Round Arrow Left">
<path id="Vector" fill-rule="evenodd" clip-rule="evenodd" d="M18 33C9.71573 33 3 26.2843 3 18C3 9.71573 9.71573 3 18 3C26.2843 3 33 9.71573 33 18C33 26.2843 26.2843 33 18 33ZM17.2955 12.7045C16.8562 12.2652 16.1438 12.2652 15.7045 12.7045L11.2045 17.2045C10.7652 17.6438 10.7652 18.3562 11.2045 18.7955L15.7045 23.2955C16.1438 23.7348 16.8562 23.7348 17.2955 23.2955C17.7348 22.8562 17.7348 22.1438 17.2955 21.7045L14.716 19.125H24C24.6213 19.125 25.125 18.6213 25.125 18C25.125 17.3787 24.6213 16.875 24 16.875H14.716L17.2955 14.2955C17.7348 13.8562 17.7348 13.1438 17.2955 12.7045Z" fill="currentColor"/>
</g>
</svg>
