<svg xmlns="http://www.w3.org/2000/svg" width="20" height="20" viewBox="0 0 20 20" fill="none">
  <path fill-rule="evenodd" clip-rule="evenodd" d="M1.46447 1.46447C0 2.92893 0 5.28595 0 10C0 14.714 0 17.0711 1.46447 18.5355C2.92893 20 5.28595 20 10 20C14.714 20 17.0711 20 18.5355 18.5355C20 17.0711 20 14.7141 20 10C20 5.28598 20 2.92893 18.5355 1.46447C17.0711 0 14.714 0 10 0C5.28595 0 2.92893 0 1.46447 1.46447ZM7.25871 5.97395C7.56308 5.693 7.58205 5.21851 7.3011 4.91414C7.02015 4.60978 6.54565 4.5908 6.24129 4.87175L3.99129 6.94867C3.83748 7.09065 3.75 7.29045 3.75 7.49977C3.75 7.7091 3.83748 7.9089 3.99129 8.05088L6.24129 10.1278C6.54565 10.4088 7.02015 10.3898 7.3011 10.0854C7.58205 9.78104 7.56308 9.30655 7.25871 9.0256L6.41824 8.24977H12.0385C13.536 8.24977 14.75 9.46377 14.75 10.9613C14.75 12.4589 13.536 13.6729 12.0385 13.6729H7.5C7.08579 13.6729 6.75 14.0086 6.75 14.4229C6.75 14.8371 7.08579 15.1729 7.5 15.1729H12.0385C14.3644 15.1729 16.25 13.2873 16.25 10.9613C16.25 8.63534 14.3644 6.74977 12.0385 6.74977H6.41824L7.25871 5.97395Z" fill="currentColor" />
</svg>
