<svg width="36" height="36" viewBox="0 0 36 36" fill="none" xmlns="http://www.w3.org/2000/svg">
<g id="Bold / Messages, Conversation / Letter Unread">
<g id="Vector">
<path d="M33 9C33 11.4853 30.9853 13.5 28.5 13.5C26.0147 13.5 24 11.4853 24 9C24 6.51472 26.0147 4.5 28.5 4.5C30.9853 4.5 33 6.51472 33 9Z" fill="#606060"/>
<path fill-rule="evenodd" clip-rule="evenodd" d="M21 7.5H15C9.34315 7.5 6.51472 7.5 4.75736 9.25736C3 11.0147 3 13.8431 3 19.5C3 25.1569 3 27.9853 4.75736 29.7426C6.51472 31.5 9.34315 31.5 15 31.5H21C26.6569 31.5 29.4853 31.5 31.2426 29.7426C33 27.9853 33 25.1569 33 19.5C33 17.32 33 15.56 32.8994 14.1195C31.7179 15.1357 30.1807 15.75 28.5 15.75C27.782 15.75 27.0901 15.6379 26.441 15.4302L24.4255 17.1098C23.0959 18.2178 22.0183 19.1159 21.0672 19.7276C20.0765 20.3648 19.1116 20.7673 18 20.7673C16.8884 20.7673 15.9235 20.3648 14.9328 19.7276C13.9817 19.1159 12.9041 18.2178 11.5745 17.1099L8.27979 14.3642C7.80248 13.9665 7.73799 13.2571 8.13575 12.7798C8.53351 12.3025 9.2429 12.238 9.72021 12.6358L12.9586 15.3344C14.358 16.5006 15.3296 17.3076 16.1499 17.8352C16.9439 18.3459 17.4824 18.5173 18 18.5173C18.5176 18.5173 19.0561 18.3459 19.8501 17.8352C20.6704 17.3076 21.642 16.5006 23.0415 15.3344L24.3007 14.285C22.7464 13.0484 21.75 11.1406 21.75 9C21.75 8.48457 21.8078 7.98263 21.9172 7.5003C21.62 7.5 21.3144 7.5 21 7.5Z" fill="#606060"/>
</g>
</g>
</svg>
