<svg width="96" height="96" viewBox="0 0 96 96" fill="none" xmlns="http://www.w3.org/2000/svg">
<path fill-rule="evenodd" clip-rule="evenodd" d="M48 63C49.6569 63 51 61.6569 51 60V16.1098L57.7222 23.9524C58.8005 25.2104 60.6944 25.356 61.9524 24.2778C63.2104 23.1995 63.356 21.3056 62.2778 20.0476L50.2778 6.04763C49.7078 5.38269 48.8758 5 48 5C47.1242 5 46.2922 5.38269 45.7222 6.04763L33.7222 20.0476C32.644 21.3056 32.7896 23.1995 34.0476 24.2778C35.3056 25.356 37.1995 25.2104 38.2778 23.9524L45 16.1098L45 60C45 61.6569 46.3431 63 48 63Z" fill="#A0A0A0"/>
<path d="M64 36C61.1912 36 59.7868 36 58.778 36.674C58.3411 36.9659 57.9661 37.341 57.6742 37.7778C57.0002 38.7867 57.0002 40.1911 57.0002 42.9998L57.0002 60C57.0002 64.9706 52.9707 69 48.0002 69C43.0296 69 39.0002 64.9706 39.0002 60L39.0002 43.0002C39.0002 40.1911 39.0002 38.7865 38.326 37.7776C38.0342 37.3409 37.6592 36.966 37.2226 36.6742C36.2136 36 34.8091 36 32 36C20.6863 36 15.0294 36 11.5147 39.5147C8 43.0294 8 48.6854 8 59.9991V63.9991C8 75.3128 8 80.9697 11.5147 84.4844C15.0294 87.9991 20.6863 87.9991 32 87.9991H64C75.3137 87.9991 80.9706 87.9991 84.4853 84.4844C88 80.9697 88 75.3128 88 63.9991V59.9991C88 48.6854 88 43.0294 84.4853 39.5147C80.9706 36 75.3137 36 64 36Z" fill="#A0A0A0"/>
</svg>
