<svg viewBox="0 0 24 24" fill="none" xmlns="http://www.w3.org/2000/svg">
<g clip-path="url(#clip0_54_268)">
<path fill-rule="evenodd" clip-rule="evenodd" d="M23.0866 7.4078C23.6896 8.86371 24 10.4241 24 12H20C20 7.58172 16.4183 4 12 4L12 0C13.5759 0 15.1363 0.310389 16.5922 0.913445C18.0481 1.5165 19.371 2.40042 20.4853 3.51472C21.5996 4.62902 22.4835 5.95189 23.0866 7.4078Z" fill="currentColor" fill-opacity="0"/>
<path fill-rule="evenodd" clip-rule="evenodd" d="M21.9776 18.6668C23.2962 16.6935 24 14.3734 24 12H20C20 16.4183 16.4183 20 12 20C7.58172 20 4 16.4183 4 12C4 7.58172 7.58172 4 12 4L12 0C9.62662 0 7.30655 0.703788 5.33316 2.02236C3.35977 3.34094 1.8217 5.21509 0.913445 7.4078C0.00519364 9.60051 -0.232446 12.0133 0.230576 14.3411C0.693599 16.6689 1.83649 18.8071 3.51472 20.4853C5.19295 22.1635 7.33114 23.3064 9.65892 23.7694C11.9867 24.2324 14.3995 23.9948 16.5922 23.0866C18.7849 22.1783 20.6591 20.6402 21.9776 18.6668Z" fill="currentColor" fill-opacity="1"/>
</g>
<defs>
<clipPath id="clip0_54_268">
<rect width="24" height="24" fill="currentColor"/>
</clipPath>
</defs>
</svg>
