<svg width="36" height="43" viewBox="0 0 36 43" fill="none" xmlns="http://www.w3.org/2000/svg">
<g filter="url(#filter0_d_195_1185)">
<mask id="mask0_195_1185" style="mask-type:alpha" maskUnits="userSpaceOnUse" x="0" y="0" width="36" height="36">
<path d="M15.75 27.632V26.132H14.25H4.5C2.84315 26.132 1.5 24.7888 1.5 23.132V4.5C1.5 2.84315 2.84315 1.5 4.5 1.5H31.5C33.1569 1.5 34.5 2.84315 34.5 4.5V23.132C34.5 24.7888 33.1569 26.132 31.5 26.132H28.5H27.8671L27.4255 26.5853L20.899 33.2853C19.0207 35.2134 15.75 33.8837 15.75 31.192V27.632Z" fill="#D9D9D9" stroke="white" stroke-width="3"/>
</mask>
<g mask="url(#mask0_195_1185)">
<rect x="-270.541" y="-5.64055" width="375.082" height="47.2691" fill="url(#paint0_linear_195_1185)"/>
</g>
</g>
<path fill-rule="evenodd" clip-rule="evenodd" d="M17.25 24.632V31.192C17.25 32.5378 18.8854 33.2027 19.8245 32.2386L27.2343 24.632H31.5C32.3284 24.632 33 23.9604 33 23.132V4.5C33 3.67157 32.3284 3 31.5 3H4.5C3.67157 3 3 3.67157 3 4.49999V23.132C3 23.9604 3.67157 24.632 4.5 24.632H17.25ZM28.5 27.632H31.5C33.9853 27.632 36 25.6172 36 23.132V4.5C36 2.01472 33.9853 0 31.5 0H4.5C2.01472 0 0 2.01471 0 4.49999V23.132C0 25.6172 2.01472 27.632 4.5 27.632H14.25V31.192C14.25 35.2296 19.1561 37.2242 21.9734 34.332L28.5 27.632Z" fill="white"/>
<path d="M24.4574 12.0831C25.5803 12.7313 25.5803 14.352 24.4574 15.0003L16.0345 19.8633C14.9116 20.5115 13.5081 19.7012 13.5081 18.4047L13.5081 8.67868C13.5081 7.38215 14.9116 6.57181 16.0345 7.22008L24.4574 12.0831Z" fill="white"/>
<defs>
<filter id="filter0_d_195_1185" x="0" y="0" width="36" height="39.701" filterUnits="userSpaceOnUse" color-interpolation-filters="sRGB">
<feFlood flood-opacity="0" result="BackgroundImageFix"/>
<feColorMatrix in="SourceAlpha" type="matrix" values="0 0 0 0 0 0 0 0 0 0 0 0 0 0 0 0 0 0 127 0" result="hardAlpha"/>
<feOffset dy="4"/>
<feComposite in2="hardAlpha" operator="out"/>
<feColorMatrix type="matrix" values="0 0 0 0 0 0 0 0 0 0 0 0 0 0 0 0 0 0 0.1 0"/>
<feBlend mode="normal" in2="BackgroundImageFix" result="effect1_dropShadow_195_1185"/>
<feBlend mode="normal" in="SourceGraphic" in2="effect1_dropShadow_195_1185" result="shape"/>
</filter>
<linearGradient id="paint0_linear_195_1185" x1="-270.541" y1="18.0853" x2="104.542" y2="18.0853" gradientUnits="userSpaceOnUse">
<stop stop-color="#FF3566"/>
<stop offset="0.130208" stop-color="#35C2FF"/>
<stop offset="0.276042" stop-color="#6AFF35"/>
<stop offset="0.320148" stop-color="#27EFB2"/>
<stop offset="0.348958" stop-color="#12D4FF"/>
<stop offset="0.384404" stop-color="#5790FF"/>
<stop offset="0.416667" stop-color="#6A35FF"/>
<stop offset="0.485962" stop-color="#DA5B8F"/>
<stop offset="0.616969" stop-color="#FFB800"/>
<stop offset="0.729167" stop-color="#FF8A00"/>
<stop offset="0.875" stop-color="#EB00FF"/>
<stop offset="1" stop-color="#FF3566"/>
</linearGradient>
</defs>
</svg>
