<svg width="208" height="48" viewBox="0 0 208 48" fill="none" xmlns="http://www.w3.org/2000/svg">
<g clip-path="url(#clip0_458_539)">
<g filter="url(#filter0_d_458_539)">
<path d="M50.591 35C47.831 35 45.7134 33.7826 44.6428 31.5865L47.4503 30.0588C47.9738 31.0852 48.9493 31.8968 50.5434 31.8968C52.542 31.8968 53.8982 30.4884 53.8982 28.173V27.9582C53.2558 28.7698 52.1138 29.3904 50.4483 29.3904C47.141 29.3904 44.5 26.8124 44.5 23.3034C44.5 19.8899 47.26 17.097 50.8765 17.097C54.5644 17.097 57.2768 19.7467 57.2768 23.3034V28.0775C57.2768 32.2787 54.4217 35 50.591 35ZM50.8289 26.1917C52.5182 26.1917 53.8507 24.9266 53.8507 23.2318C53.8507 21.537 52.5182 20.2957 50.8289 20.2957C49.1634 20.2957 47.831 21.537 47.831 23.2318C47.831 24.9266 49.1634 26.1917 50.8289 26.1917Z" fill="white"/>
<path d="M60.5807 17.4312H63.9593V29.2472H60.5807V17.4312Z" fill="white"/>
<path d="M71.901 29.2472H68.5224V20.2957H66.4286V17.4312H68.5224V16.8106C68.5224 13.97 70.2117 11.75 73.6617 11.75C74.4469 11.75 75.2558 11.8932 75.8506 12.1558V15.2829C75.3034 14.9487 74.5896 14.7816 73.971 14.7816C72.6862 14.7816 71.901 15.4261 71.901 16.7628V17.4312H75.6603V20.2957H71.901V29.2472Z" fill="white"/>
<path d="M82.8185 35C80.0585 35 77.9409 33.7826 76.8702 31.5865L79.6778 30.0588C80.2012 31.0852 81.1767 31.8968 82.7709 31.8968C84.7695 31.8968 86.1257 30.4884 86.1257 28.173V27.9582C85.4833 28.7698 84.3412 29.3904 82.6757 29.3904C79.3685 29.3904 76.7275 26.8124 76.7275 23.3034C76.7275 19.8899 79.4874 17.097 83.104 17.097C86.7919 17.097 89.5043 19.7467 89.5043 23.3034V28.0775C89.5043 32.2787 86.6491 35 82.8185 35ZM83.0564 26.1917C84.7457 26.1917 86.0781 24.9266 86.0781 23.2318C86.0781 21.537 84.7457 20.2957 83.0564 20.2957C81.3909 20.2957 80.0585 21.537 80.0585 23.2318C80.0585 24.9266 81.3909 26.1917 83.0564 26.1917Z" fill="white"/>
<path d="M95.7109 29.2472H92.3323V22.4679C92.3323 19.4363 94.0454 17.1209 97.543 17.1209C98.3044 17.1209 99.1371 17.2641 99.732 17.5267V20.8208C99.1609 20.4867 98.4709 20.3196 97.8523 20.3196C96.5199 20.3196 95.7109 21.1789 95.7109 22.5873V29.2472Z" fill="white"/>
<path d="M106.629 29.5575C103.202 29.5575 100.799 26.7408 100.799 23.3034C100.799 19.9138 103.559 17.0732 107.176 17.0732C110.864 17.0732 113.576 19.7467 113.576 23.3034V29.2472H110.364V27.8627C109.531 28.913 108.247 29.5575 106.629 29.5575ZM107.176 26.3827C108.913 26.3827 110.198 24.9982 110.198 23.3273C110.198 21.6563 108.913 20.2718 107.176 20.2718C105.439 20.2718 104.178 21.6563 104.178 23.3273C104.178 24.9982 105.439 26.3827 107.176 26.3827Z" fill="white"/>
<path d="M131.251 17.0015C135.082 17.0015 137.033 19.7705 137.033 23.0647V29.2472H133.654V23.6376C133.654 21.8234 132.869 20.2957 131.013 20.2957C129.181 20.2957 128.396 21.7995 128.396 23.5898V29.2472H125.017V23.6137C125.017 21.7995 124.232 20.2957 122.4 20.2957C120.52 20.2957 119.783 21.8234 119.783 23.6137V29.2472H116.404V23.0647C116.404 19.7705 118.331 17.0015 122.138 17.0015C124.399 17.0015 126.04 18.0041 126.73 19.6273C127.468 18.0041 129.133 17.0015 131.251 17.0015Z" fill="white"/>
<path d="M144.488 29.5814C142.037 29.5814 140.324 28.6743 139.348 26.9079L141.847 25.4995C142.346 26.4543 143.132 26.8601 144.321 26.8601C145.416 26.8601 146.106 26.4304 146.106 25.7382C146.106 23.8285 139.634 25.4756 139.634 20.9163C139.634 18.7918 141.49 17.1209 144.393 17.1209C146.915 17.1209 148.437 18.3144 149.151 19.675L146.653 21.0834C146.272 20.2241 145.416 19.8183 144.464 19.8183C143.631 19.8183 143.013 20.2241 143.013 20.8447C143.013 22.7544 149.484 21.2266 149.484 25.6666C149.484 28.0536 147.176 29.5814 144.488 29.5814Z" fill="white"/>
<path d="M154.266 29.5098C153.1 29.5098 152.172 28.5549 152.172 27.4091C152.172 26.2633 153.1 25.3085 154.266 25.3085C155.408 25.3085 156.336 26.2633 156.336 27.4091C156.336 28.5549 155.408 29.5098 154.266 29.5098Z" fill="white"/>
<path d="M164.752 29.5575C161.207 29.5814 158.423 26.7408 158.423 23.3273C158.423 19.8899 161.207 17.0732 164.752 17.097C167.012 17.1209 169.106 18.1473 170.177 20.4389L167.393 21.9666C166.87 20.9402 165.918 20.2957 164.752 20.2957C163.063 20.2957 161.802 21.6563 161.802 23.3273C161.802 24.9982 163.063 26.3588 164.752 26.3588C165.918 26.3588 166.87 25.7143 167.393 24.6879L170.177 26.2156C169.106 28.5072 167.012 29.5336 164.752 29.5575Z" fill="white"/>
<path d="M177.974 29.5575C174.357 29.5575 171.597 26.7408 171.597 23.3034C171.597 19.8899 174.381 17.0732 177.974 17.0732C181.614 17.0732 184.374 19.9138 184.374 23.3034C184.374 26.7408 181.591 29.5575 177.974 29.5575ZM177.974 26.3827C179.711 26.3827 180.996 24.9982 180.996 23.3273C180.996 21.6563 179.711 20.2718 177.974 20.2718C176.237 20.2718 174.976 21.6563 174.976 23.3273C174.976 24.9982 176.237 26.3827 177.974 26.3827Z" fill="white"/>
<path d="M201.468 17.0015C205.299 17.0015 207.25 19.7705 207.25 23.0647V29.2472H203.871V23.6376C203.871 21.8234 203.086 20.2957 201.23 20.2957C199.398 20.2957 198.613 21.7995 198.613 23.5898V29.2472H195.235V23.6137C195.235 21.7995 194.449 20.2957 192.617 20.2957C190.738 20.2957 190 21.8234 190 23.6137V29.2472H186.621V23.0647C186.621 19.7705 188.549 17.0015 192.356 17.0015C194.616 17.0015 196.258 18.0041 196.948 19.6273C197.685 18.0041 199.351 17.0015 201.468 17.0015Z" fill="white"/>
</g>
<g filter="url(#filter1_d_458_539)">
<mask id="mask0_458_539" style="mask-type:alpha" maskUnits="userSpaceOnUse" x="1" y="5" width="36" height="36">
<path d="M16.75 32.632V31.132H15.25H5.5C3.84315 31.132 2.5 29.7888 2.5 28.132V9.5C2.5 7.84315 3.84315 6.5 5.5 6.5H32.5C34.1569 6.5 35.5 7.84315 35.5 9.5V28.132C35.5 29.7888 34.1569 31.132 32.5 31.132H29.5H28.8671L28.4255 31.5853L21.899 38.2853C20.0207 40.2134 16.75 38.8837 16.75 36.192V32.632Z" fill="#D9D9D9" stroke="white" stroke-width="3"/>
</mask>
<g mask="url(#mask0_458_539)">
<rect x="-269.541" y="-0.640625" width="375.082" height="47.2691" fill="url(#paint0_linear_458_539)"/>
</g>
</g>
<path fill-rule="evenodd" clip-rule="evenodd" d="M18.25 29.632V36.192C18.25 37.5378 19.8854 38.2027 20.8245 37.2386L28.2343 29.632H32.5C33.3284 29.632 34 28.9604 34 28.132V9.5C34 8.67157 33.3284 8 32.5 8H5.5C4.67157 8 4 8.67157 4 9.49999V28.132C4 28.9604 4.67157 29.632 5.5 29.632H18.25ZM29.5 32.632H32.5C34.9853 32.632 37 30.6172 37 28.132V9.5C37 7.01472 34.9853 5 32.5 5H5.5C3.01472 5 1 7.01471 1 9.49999V28.132C1 30.6172 3.01472 32.632 5.5 32.632H15.25V36.192C15.25 40.2296 20.1561 42.2242 22.9734 39.332L29.5 32.632Z" fill="white"/>
<path d="M25.4574 17.0831C26.5802 17.7313 26.5802 19.352 25.4574 20.0003L17.0344 24.8633C15.9116 25.5115 14.5081 24.7012 14.5081 23.4047L14.5081 13.6787C14.5081 12.3821 15.9116 11.5718 17.0344 12.2201L25.4574 17.0831Z" fill="white"/>
<g filter="url(#filter2_d_458_539)">
<path d="M62.8265 6.67382C62.935 6.38055 63.3498 6.38055 63.4583 6.67382L64.463 9.38889C64.4971 9.48109 64.5698 9.55379 64.662 9.5879L67.3771 10.5926C67.6704 10.7011 67.6704 11.1159 67.3771 11.2244L64.662 12.2291C64.5698 12.2632 64.4971 12.3359 64.463 12.4281L63.4583 15.1432C63.3498 15.4364 62.935 15.4364 62.8265 15.1432L61.8219 12.4281C61.7877 12.3359 61.715 12.2632 61.6228 12.2291L58.9078 11.2244C58.6145 11.1159 58.6145 10.7011 58.9078 10.5926L61.6228 9.5879C61.715 9.55379 61.7877 9.48109 61.8219 9.38889L62.8265 6.67382Z" fill="#FFE058"/>
<path d="M59.0005 5.42687C59.0548 5.28024 59.2622 5.28024 59.3164 5.42687L59.8016 6.7379C59.8186 6.784 59.855 6.82035 59.9011 6.83741L61.2121 7.32253C61.3587 7.37679 61.3587 7.58419 61.2121 7.63845L59.9011 8.12357C59.855 8.14063 59.8186 8.17698 59.8016 8.22308L59.3164 9.53411C59.2622 9.68074 59.0548 9.68074 59.0005 9.53411L58.5154 8.22308C58.4983 8.17698 58.462 8.14063 58.4159 8.12357L57.1049 7.63845C56.9582 7.58419 56.9582 7.37679 57.1049 7.32253L58.4159 6.83741C58.462 6.82035 58.4983 6.784 58.5154 6.7379L59.0005 5.42687Z" fill="#FFE058"/>
<path d="M58.3055 13.2862C58.3598 13.1396 58.5672 13.1396 58.6215 13.2862L58.839 13.8741C58.856 13.9202 58.8924 13.9566 58.9385 13.9736L59.5264 14.1912C59.673 14.2454 59.673 14.4528 59.5264 14.5071L58.9385 14.7246C58.8924 14.7417 58.856 14.778 58.839 14.8241L58.6215 15.412C58.5672 15.5586 58.3598 15.5586 58.3055 15.412L58.088 14.8241C58.0709 14.778 58.0346 14.7417 57.9885 14.7246L57.4006 14.5071C57.254 14.4528 57.254 14.2454 57.4006 14.1912L57.9885 13.9736C58.0346 13.9566 58.0709 13.9202 58.088 13.8741L58.3055 13.2862Z" fill="#FFE058"/>
</g>
</g>
<defs>
<filter id="filter0_d_458_539" x="40.5" y="7.75" width="170.75" height="31.25" filterUnits="userSpaceOnUse" color-interpolation-filters="sRGB">
<feFlood flood-opacity="0" result="BackgroundImageFix"/>
<feColorMatrix in="SourceAlpha" type="matrix" values="0 0 0 0 0 0 0 0 0 0 0 0 0 0 0 0 0 0 127 0" result="hardAlpha"/>
<feOffset/>
<feGaussianBlur stdDeviation="2"/>
<feComposite in2="hardAlpha" operator="out"/>
<feColorMatrix type="matrix" values="0 0 0 0 0 0 0 0 0 0 0 0 0 0 0 0 0 0 0.2 0"/>
<feBlend mode="normal" in2="BackgroundImageFix" result="effect1_dropShadow_458_539"/>
<feBlend mode="normal" in="SourceGraphic" in2="effect1_dropShadow_458_539" result="shape"/>
</filter>
<filter id="filter1_d_458_539" x="1" y="5" width="36" height="39.7009" filterUnits="userSpaceOnUse" color-interpolation-filters="sRGB">
<feFlood flood-opacity="0" result="BackgroundImageFix"/>
<feColorMatrix in="SourceAlpha" type="matrix" values="0 0 0 0 0 0 0 0 0 0 0 0 0 0 0 0 0 0 127 0" result="hardAlpha"/>
<feOffset dy="4"/>
<feComposite in2="hardAlpha" operator="out"/>
<feColorMatrix type="matrix" values="0 0 0 0 0 0 0 0 0 0 0 0 0 0 0 0 0 0 0.1 0"/>
<feBlend mode="normal" in2="BackgroundImageFix" result="effect1_dropShadow_458_539"/>
<feBlend mode="normal" in="SourceGraphic" in2="effect1_dropShadow_458_539" result="shape"/>
</filter>
<filter id="filter2_d_458_539" x="52.9949" y="1.31689" width="18.6022" height="18.2051" filterUnits="userSpaceOnUse" color-interpolation-filters="sRGB">
<feFlood flood-opacity="0" result="BackgroundImageFix"/>
<feColorMatrix in="SourceAlpha" type="matrix" values="0 0 0 0 0 0 0 0 0 0 0 0 0 0 0 0 0 0 127 0" result="hardAlpha"/>
<feOffset/>
<feGaussianBlur stdDeviation="2"/>
<feComposite in2="hardAlpha" operator="out"/>
<feColorMatrix type="matrix" values="0 0 0 0 0 0 0 0 0 0 0 0 0 0 0 0 0 0 0.2 0"/>
<feBlend mode="normal" in2="BackgroundImageFix" result="effect1_dropShadow_458_539"/>
<feBlend mode="normal" in="SourceGraphic" in2="effect1_dropShadow_458_539" result="shape"/>
</filter>
<linearGradient id="paint0_linear_458_539" x1="-269.541" y1="23.0852" x2="105.542" y2="23.0852" gradientUnits="userSpaceOnUse">
<stop stop-color="#FF3566"/>
<stop offset="0.130208" stop-color="#35C2FF"/>
<stop offset="0.276042" stop-color="#6AFF35"/>
<stop offset="0.320148" stop-color="#27EFB2"/>
<stop offset="0.348958" stop-color="#12D4FF"/>
<stop offset="0.384404" stop-color="#5790FF"/>
<stop offset="0.416667" stop-color="#6A35FF"/>
<stop offset="0.485962" stop-color="#DA5B8F"/>
<stop offset="0.616969" stop-color="#FFB800"/>
<stop offset="0.729167" stop-color="#FF8A00"/>
<stop offset="0.875" stop-color="#EB00FF"/>
<stop offset="1" stop-color="#FF3566"/>
</linearGradient>
<clipPath id="clip0_458_539">
<rect width="208" height="48" fill="white"/>
</clipPath>
</defs>
</svg>
