<svg width="38" height="48" viewBox="0 0 38 48" fill="none" xmlns="http://www.w3.org/2000/svg">
<g filter="url(#filter0_d_458_597)">
<mask id="mask0_458_597" style="mask-type:alpha" maskUnits="userSpaceOnUse" x="1" y="5" width="36" height="36">
<path d="M16.75 32.632V31.132H15.25H5.5C3.84315 31.132 2.5 29.7888 2.5 28.132V9.5C2.5 7.84315 3.84315 6.5 5.5 6.5H32.5C34.1569 6.5 35.5 7.84315 35.5 9.5V28.132C35.5 29.7888 34.1569 31.132 32.5 31.132H29.5H28.8671L28.4255 31.5853L21.899 38.2853C20.0207 40.2134 16.75 38.8837 16.75 36.192V32.632Z" fill="#D9D9D9" stroke="white" stroke-width="3"/>
</mask>
<g mask="url(#mask0_458_597)">
<rect x="-269.541" y="-0.640503" width="375.082" height="47.2691" fill="url(#paint0_linear_458_597)"/>
</g>
</g>
<path fill-rule="evenodd" clip-rule="evenodd" d="M18.25 29.632V36.192C18.25 37.5378 19.8854 38.2027 20.8245 37.2386L28.2343 29.632H32.5C33.3284 29.632 34 28.9604 34 28.132V9.5C34 8.67157 33.3284 8 32.5 8H5.5C4.67157 8 4 8.67157 4 9.49999V28.132C4 28.9604 4.67157 29.632 5.5 29.632H18.25ZM29.5 32.632H32.5C34.9853 32.632 37 30.6172 37 28.132V9.5C37 7.01472 34.9853 5 32.5 5H5.5C3.01472 5 1 7.01471 1 9.49999V28.132C1 30.6172 3.01472 32.632 5.5 32.632H15.25V36.192C15.25 40.2296 20.1561 42.2242 22.9734 39.332L29.5 32.632Z" fill="white"/>
<path d="M25.4574 17.0831C26.5802 17.7313 26.5802 19.352 25.4574 20.0003L17.0344 24.8633C15.9116 25.5115 14.5081 24.7012 14.5081 23.4047L14.5081 13.6787C14.5081 12.3821 15.9116 11.5718 17.0344 12.2201L25.4574 17.0831Z" fill="white"/>
<defs>
<filter id="filter0_d_458_597" x="1" y="5" width="36" height="39.701" filterUnits="userSpaceOnUse" color-interpolation-filters="sRGB">
<feFlood flood-opacity="0" result="BackgroundImageFix"/>
<feColorMatrix in="SourceAlpha" type="matrix" values="0 0 0 0 0 0 0 0 0 0 0 0 0 0 0 0 0 0 127 0" result="hardAlpha"/>
<feOffset dy="4"/>
<feComposite in2="hardAlpha" operator="out"/>
<feColorMatrix type="matrix" values="0 0 0 0 0 0 0 0 0 0 0 0 0 0 0 0 0 0 0.1 0"/>
<feBlend mode="normal" in2="BackgroundImageFix" result="effect1_dropShadow_458_597"/>
<feBlend mode="normal" in="SourceGraphic" in2="effect1_dropShadow_458_597" result="shape"/>
</filter>
<linearGradient id="paint0_linear_458_597" x1="-269.541" y1="23.0853" x2="105.542" y2="23.0853" gradientUnits="userSpaceOnUse">
<stop stop-color="#FF3566"/>
<stop offset="0.130208" stop-color="#35C2FF"/>
<stop offset="0.276042" stop-color="#6AFF35"/>
<stop offset="0.320148" stop-color="#27EFB2"/>
<stop offset="0.348958" stop-color="#12D4FF"/>
<stop offset="0.384404" stop-color="#5790FF"/>
<stop offset="0.416667" stop-color="#6A35FF"/>
<stop offset="0.485962" stop-color="#DA5B8F"/>
<stop offset="0.616969" stop-color="#FFB800"/>
<stop offset="0.729167" stop-color="#FF8A00"/>
<stop offset="0.875" stop-color="#EB00FF"/>
<stop offset="1" stop-color="#FF3566"/>
</linearGradient>
</defs>
</svg>
