<svg width="208" height="42" viewBox="0 0 208 42" fill="none" xmlns="http://www.w3.org/2000/svg">
<g clip-path="url(#clip0_35_2)">
<path d="M50.591 30C47.831 30 45.7134 28.7826 44.6428 26.5865L47.4503 25.0588C47.9738 26.0852 48.9493 26.8968 50.5434 26.8968C52.542 26.8968 53.8982 25.4884 53.8982 23.173V22.9582C53.2558 23.7698 52.1138 24.3904 50.4483 24.3904C47.141 24.3904 44.5 21.8124 44.5 18.3034C44.5 14.8899 47.26 12.097 50.8765 12.097C54.5644 12.097 57.2768 14.7467 57.2768 18.3034V23.0775C57.2768 27.2787 54.4217 30 50.591 30ZM50.8289 21.1917C52.5182 21.1917 53.8507 19.9266 53.8507 18.2318C53.8507 16.537 52.5182 15.2957 50.8289 15.2957C49.1634 15.2957 47.831 16.537 47.831 18.2318C47.831 19.9266 49.1634 21.1917 50.8289 21.1917Z" fill="white"/>
<path d="M60.5807 12.4312H63.9593V24.2472H60.5807V12.4312Z" fill="white"/>
<path d="M71.901 24.2472H68.5224V15.2957H66.4286V12.4312H68.5224V11.8106C68.5224 8.96997 70.2117 6.75 73.6617 6.75C74.4469 6.75 75.2558 6.89322 75.8506 7.1558V10.2829C75.3034 9.94866 74.5896 9.78157 73.971 9.78157C72.6862 9.78157 71.901 10.4261 71.901 11.7628V12.4312H75.6603V15.2957H71.901V24.2472Z" fill="white"/>
<path d="M82.8185 30C80.0585 30 77.9409 28.7826 76.8702 26.5865L79.6778 25.0588C80.2012 26.0852 81.1767 26.8968 82.7709 26.8968C84.7695 26.8968 86.1257 25.4884 86.1257 23.173V22.9582C85.4833 23.7698 84.3412 24.3904 82.6757 24.3904C79.3685 24.3904 76.7275 21.8124 76.7275 18.3034C76.7275 14.8899 79.4874 12.097 83.104 12.097C86.7919 12.097 89.5043 14.7467 89.5043 18.3034V23.0775C89.5043 27.2787 86.6491 30 82.8185 30ZM83.0564 21.1917C84.7457 21.1917 86.0781 19.9266 86.0781 18.2318C86.0781 16.537 84.7457 15.2957 83.0564 15.2957C81.3909 15.2957 80.0585 16.537 80.0585 18.2318C80.0585 19.9266 81.3909 21.1917 83.0564 21.1917Z" fill="white"/>
<path d="M95.7109 24.2472H92.3323V17.4679C92.3323 14.4363 94.0454 12.1209 97.543 12.1209C98.3044 12.1209 99.1371 12.2641 99.732 12.5267V15.8208C99.1609 15.4867 98.4709 15.3196 97.8523 15.3196C96.5199 15.3196 95.7109 16.1789 95.7109 17.5873V24.2472Z" fill="white"/>
<path d="M106.629 24.5575C103.202 24.5575 100.799 21.7408 100.799 18.3034C100.799 14.9138 103.559 12.0732 107.176 12.0732C110.864 12.0732 113.576 14.7467 113.576 18.3034V24.2472H110.364V22.8627C109.531 23.913 108.247 24.5575 106.629 24.5575ZM107.176 21.3827C108.913 21.3827 110.198 19.9982 110.198 18.3273C110.198 16.6563 108.913 15.2718 107.176 15.2718C105.439 15.2718 104.178 16.6563 104.178 18.3273C104.178 19.9982 105.439 21.3827 107.176 21.3827Z" fill="white"/>
<path d="M131.251 12.0015C135.082 12.0015 137.033 14.7705 137.033 18.0647V24.2472H133.654V18.6376C133.654 16.8234 132.869 15.2957 131.013 15.2957C129.181 15.2957 128.396 16.7995 128.396 18.5898V24.2472H125.017V18.6137C125.017 16.7995 124.232 15.2957 122.4 15.2957C120.52 15.2957 119.783 16.8234 119.783 18.6137V24.2472H116.404V18.0647C116.404 14.7705 118.331 12.0015 122.138 12.0015C124.399 12.0015 126.04 13.0041 126.73 14.6273C127.468 13.0041 129.133 12.0015 131.251 12.0015Z" fill="white"/>
<path d="M144.488 24.5814C142.037 24.5814 140.324 23.6743 139.348 21.9079L141.847 20.4995C142.346 21.4543 143.132 21.8601 144.321 21.8601C145.416 21.8601 146.106 21.4304 146.106 20.7382C146.106 18.8285 139.634 20.4756 139.634 15.9163C139.634 13.7918 141.49 12.1209 144.393 12.1209C146.915 12.1209 148.437 13.3144 149.151 14.675L146.653 16.0834C146.272 15.2241 145.416 14.8183 144.464 14.8183C143.631 14.8183 143.013 15.2241 143.013 15.8447C143.013 17.7544 149.484 16.2266 149.484 20.6666C149.484 23.0536 147.176 24.5814 144.488 24.5814Z" fill="white"/>
<path d="M154.266 24.5098C153.1 24.5098 152.172 23.5549 152.172 22.4091C152.172 21.2633 153.1 20.3085 154.266 20.3085C155.408 20.3085 156.336 21.2633 156.336 22.4091C156.336 23.5549 155.408 24.5098 154.266 24.5098Z" fill="white"/>
<path d="M164.752 24.5575C161.207 24.5814 158.423 21.7408 158.423 18.3273C158.423 14.8899 161.207 12.0732 164.752 12.097C167.012 12.1209 169.106 13.1473 170.177 15.4389L167.393 16.9666C166.87 15.9402 165.918 15.2957 164.752 15.2957C163.063 15.2957 161.802 16.6563 161.802 18.3273C161.802 19.9982 163.063 21.3588 164.752 21.3588C165.918 21.3588 166.87 20.7143 167.393 19.6879L170.177 21.2156C169.106 23.5072 167.012 24.5336 164.752 24.5575Z" fill="white"/>
<path d="M177.974 24.5575C174.357 24.5575 171.597 21.7408 171.597 18.3034C171.597 14.8899 174.381 12.0732 177.974 12.0732C181.614 12.0732 184.374 14.9138 184.374 18.3034C184.374 21.7408 181.591 24.5575 177.974 24.5575ZM177.974 21.3827C179.711 21.3827 180.996 19.9982 180.996 18.3273C180.996 16.6563 179.711 15.2718 177.974 15.2718C176.237 15.2718 174.976 16.6563 174.976 18.3273C174.976 19.9982 176.237 21.3827 177.974 21.3827Z" fill="white"/>
<path d="M201.468 12.0015C205.299 12.0015 207.25 14.7705 207.25 18.0647V24.2472H203.871V18.6376C203.871 16.8234 203.086 15.2957 201.23 15.2957C199.398 15.2957 198.613 16.7995 198.613 18.5898V24.2472H195.235V18.6137C195.235 16.7995 194.449 15.2957 192.617 15.2957C190.738 15.2957 190 16.8234 190 18.6137V24.2472H186.621V18.0647C186.621 14.7705 188.549 12.0015 192.356 12.0015C194.616 12.0015 196.258 13.0041 196.948 14.6273C197.685 13.0041 199.351 12.0015 201.468 12.0015Z" fill="white"/>
<g filter="url(#filter0_d_35_2)">
<mask id="mask0_35_2" style="mask-type:alpha" maskUnits="userSpaceOnUse" x="1" y="0" width="36" height="36">
<path d="M16.75 27.632V26.132H15.25H5.5C3.84315 26.132 2.5 24.7888 2.5 23.132V4.5C2.5 2.84315 3.84315 1.5 5.5 1.5H32.5C34.1569 1.5 35.5 2.84315 35.5 4.5V23.132C35.5 24.7888 34.1569 26.132 32.5 26.132H29.5H28.8671L28.4255 26.5853L21.899 33.2853C20.0207 35.2134 16.75 33.8837 16.75 31.192V27.632Z" fill="#D9D9D9" stroke="white" stroke-width="3"/>
</mask>
<g mask="url(#mask0_35_2)">
<rect x="-269.541" y="-5.64053" width="375.082" height="47.2691" fill="url(#paint0_linear_35_2)"/>
</g>
</g>
<path fill-rule="evenodd" clip-rule="evenodd" d="M18.25 24.632V31.192C18.25 32.5378 19.8854 33.2027 20.8245 32.2386L28.2343 24.632H32.5C33.3284 24.632 34 23.9604 34 23.132V4.5C34 3.67157 33.3284 3 32.5 3H5.5C4.67157 3 4 3.67157 4 4.49999V23.132C4 23.9604 4.67157 24.632 5.5 24.632H18.25ZM29.5 27.632H32.5C34.9853 27.632 37 25.6172 37 23.132V4.5C37 2.01472 34.9853 0 32.5 0H5.5C3.01472 0 1 2.01471 1 4.49999V23.132C1 25.6172 3.01472 27.632 5.5 27.632H15.25V31.192C15.25 35.2296 20.1561 37.2242 22.9734 34.332L29.5 27.632Z" fill="white"/>
<path d="M25.4574 12.0831C26.5802 12.7314 26.5802 14.352 25.4574 15.0003L17.0344 19.8633C15.9116 20.5116 14.5081 19.7012 14.5081 18.4047L14.5081 8.6787C14.5081 7.38216 15.9116 6.57183 17.0344 7.2201L25.4574 12.0831Z" fill="white"/>
<path d="M62.8266 1.67394C62.9351 1.38067 63.3499 1.38067 63.4584 1.67394L64.4631 4.38901C64.4972 4.48121 64.5699 4.55391 64.6621 4.58803L67.3772 5.59269C67.6704 5.70121 67.6704 6.116 67.3772 6.22452L64.6621 7.22919C64.5699 7.26331 64.4972 7.336 64.4631 7.42821L63.4584 10.1433C63.3499 10.4365 62.9351 10.4365 62.8266 10.1433L61.8219 7.42821C61.7878 7.336 61.7151 7.26331 61.6229 7.22919L58.9078 6.22452C58.6146 6.116 58.6146 5.70121 58.9078 5.59269L61.6229 4.58803C61.7151 4.55391 61.7878 4.48121 61.8219 4.38901L62.8266 1.67394Z" fill="#FFE058"/>
<path d="M59.0005 0.426874C59.0548 0.28024 59.2622 0.28024 59.3164 0.426874L59.8016 1.7379C59.8186 1.784 59.855 1.82035 59.9011 1.83741L61.2121 2.32253C61.3587 2.37679 61.3587 2.58419 61.2121 2.63845L59.9011 3.12357C59.855 3.14063 59.8186 3.17698 59.8016 3.22308L59.3164 4.53411C59.2622 4.68074 59.0548 4.68074 59.0005 4.53411L58.5154 3.22308C58.4983 3.17698 58.462 3.14063 58.4159 3.12357L57.1049 2.63845C56.9582 2.58419 56.9582 2.37679 57.1049 2.32253L58.4159 1.83741C58.462 1.82035 58.4983 1.784 58.5154 1.7379L59.0005 0.426874Z" fill="#FFE058"/>
<path d="M58.3055 8.28622C58.3598 8.13958 58.5672 8.13958 58.6215 8.28622L58.839 8.87409C58.856 8.92019 58.8924 8.95654 58.9385 8.97359L59.5264 9.19112C59.673 9.24538 59.673 9.45278 59.5264 9.50704L58.9385 9.72457C58.8924 9.74163 58.856 9.77798 58.839 9.82408L58.6215 10.4119C58.5672 10.5586 58.3598 10.5586 58.3055 10.4119L58.088 9.82408C58.0709 9.77798 58.0346 9.74163 57.9885 9.72457L57.4006 9.50704C57.254 9.45278 57.254 9.24538 57.4006 9.19112L57.9885 8.97359C58.0346 8.95654 58.0709 8.92019 58.088 8.87409L58.3055 8.28622Z" fill="#FFE058"/>
</g>
<defs>
<filter id="filter0_d_35_2" x="1" y="0" width="36" height="39.701" filterUnits="userSpaceOnUse" color-interpolation-filters="sRGB">
<feFlood flood-opacity="0" result="BackgroundImageFix"/>
<feColorMatrix in="SourceAlpha" type="matrix" values="0 0 0 0 0 0 0 0 0 0 0 0 0 0 0 0 0 0 127 0" result="hardAlpha"/>
<feOffset dy="4"/>
<feComposite in2="hardAlpha" operator="out"/>
<feColorMatrix type="matrix" values="0 0 0 0 0 0 0 0 0 0 0 0 0 0 0 0 0 0 0.1 0"/>
<feBlend mode="normal" in2="BackgroundImageFix" result="effect1_dropShadow_35_2"/>
<feBlend mode="normal" in="SourceGraphic" in2="effect1_dropShadow_35_2" result="shape"/>
</filter>
<linearGradient id="paint0_linear_35_2" x1="-269.541" y1="18.0853" x2="105.542" y2="18.0853" gradientUnits="userSpaceOnUse">
<stop stop-color="#FF3566"/>
<stop offset="0.130208" stop-color="#35C2FF"/>
<stop offset="0.276042" stop-color="#6AFF35"/>
<stop offset="0.320148" stop-color="#27EFB2"/>
<stop offset="0.348958" stop-color="#12D4FF"/>
<stop offset="0.384404" stop-color="#5790FF"/>
<stop offset="0.416667" stop-color="#6A35FF"/>
<stop offset="0.485962" stop-color="#DA5B8F"/>
<stop offset="0.616969" stop-color="#FFB800"/>
<stop offset="0.729167" stop-color="#FF8A00"/>
<stop offset="0.875" stop-color="#EB00FF"/>
<stop offset="1" stop-color="#FF3566"/>
</linearGradient>
<clipPath id="clip0_35_2">
<rect width="208" height="42" fill="white"/>
</clipPath>
</defs>
</svg>
